<?xml version="1.0" standalone="no"?>
<!DOCTYPE svg PUBLIC "-//W3C//DTD SVG 20010904//EN"
 "http://www.w3.org/TR/2001/REC-SVG-20010904/DTD/svg10.dtd">
<svg version="1.0" xmlns="http://www.w3.org/2000/svg"
 width="396.000000pt" height="353.000000pt" viewBox="0 0 396.000000 353.000000"
 preserveAspectRatio="xMidYMid meet">

<g transform="translate(0.000000,353.000000) scale(0.100000,-0.100000)"
fill="#000000" stroke="none">
<path d="M1569 3500 c-49 -26 -84 -95 -74 -147 3 -20 72 -154 152 -297 81
-144 188 -335 238 -426 51 -91 145 -259 210 -375 65 -115 150 -268 190 -340
40 -71 124 -222 187 -335 63 -113 266 -475 450 -805 413 -739 400 -716 436
-737 44 -26 121 -24 162 5 36 23 47 43 269 445 158 285 164 302 165 422 1 125
-11 159 -146 404 -61 111 -150 273 -198 361 -48 88 -138 252 -200 365 -122
222 -226 414 -397 725 -300 548 -319 580 -364 624 -25 26 -69 59 -98 75 -99
54 -122 56 -551 55 -370 0 -397 -1 -431 -19z m814 -294 c18 -7 42 -24 53 -37
12 -13 88 -145 169 -294 185 -337 352 -644 463 -845 160 -293 375 -685 465
-850 49 -91 97 -176 105 -188 9 -13 16 -45 16 -70 1 -41 -12 -71 -105 -241
-58 -106 -109 -193 -114 -193 -8 0 -143 239 -539 952 -57 102 -246 441 -421
755 -175 314 -373 670 -441 792 -68 122 -124 224 -124 227 0 3 99 6 220 6 165
0 229 -3 253 -14z"/>
<path d="M1223 3010 c-40 -24 -42 -26 -263 -410 -101 -173 -280 -484 -400
-690 -270 -466 -253 -433 -247 -488 6 -52 31 -89 78 -117 33 -20 52 -20 899
-20 847 0 866 0 899 20 47 28 72 65 78 117 7 56 33 5 -455 863 -317 557 -405
705 -432 723 -42 28 -112 30 -157 2z m273 -797 c108 -192 232 -409 275 -483
l78 -135 -556 -3 c-306 -1 -558 -1 -560 1 -1 2 54 102 123 223 69 120 193 337
276 482 83 144 154 262 159 262 4 0 96 -156 205 -347z"/>
<path d="M81 1062 c-54 -27 -76 -64 -76 -130 0 -56 4 -64 174 -357 96 -165
192 -325 212 -356 48 -72 106 -122 189 -162 l65 -32 1111 -3 1111 -2 34 23
c94 62 89 200 -9 255 l-40 22 -1061 0 c-1170 0 -1095 -4 -1144 62 -25 35 -227
383 -227 392 0 3 450 6 1000 6 975 0 1002 0 1039 20 42 21 81 85 81 132 0 41
-42 109 -80 129 -33 18 -84 19 -1190 19 -1080 0 -1157 -1 -1189 -18z"/>
</g>
</svg>
